<svg xmlns="http://www.w3.org/2000/svg"
     version="1.1"
     x="0px" y="0px"
     viewBox="0 0 100 125"
     enable-background="new 0 0 100 100"
>
    <g>
        <circle display="inline" fill="#000000" cx="50" cy="50" r="45"/>
    </g>
    <g>
        <polygon points="55,15 65,15 65,5 55,5 45,5 35,5 35,15 45,15  "/>
        <polygon points="25,25 35,25 35,15 25,15 15,15 15,25 15,35 25,35  "/>
        <polygon points="15,45 15,35 5,35 5,45 5,55 5,65 15,65 15,55  "/>
        <polygon points="25,75 25,65 15,65 15,75 15,85 25,85 35,85 35,75  "/>
        <polygon points="45,85 35,85 35,95 45,95 55,95 65,95 65,85 55,85  "/>
        <polygon points="75,75 65,75 65,85 75,85 85,85 85,75 85,65 75,65  "/>
        <polygon points="85,45 85,55 85,65 95,65 95,55 95,45 95,35 85,35  "/>
        <polygon points="75,25 75,35 85,35 85,25 85,15 75,15 65,15 65,25  "/>
    </g>
</svg>